<svg width="181" height="126" viewBox="0 0 181 126" fill="none" xmlns="http://www.w3.org/2000/svg">
<g clip-path="url(#clip0)">
<path d="M91.0423 125.18C125.679 125.18 153.757 97.1572 153.757 62.5898C153.757 28.0224 125.679 0 91.0423 0C56.406 0 28.3276 28.0224 28.3276 62.5898C28.3276 97.1572 56.406 125.18 91.0423 125.18Z" fill="#FFAC61"/>
<path d="M15.5333 107.704C14.7312 106.335 14.3302 104.66 14.3302 102.677C14.3302 99.5637 14.5194 95.7416 14.8977 91.2112L15.1824 87.5292L15.4651 80.0272C15.4651 76.7241 15.1309 69.3627 14.4626 57.9433C13.7942 46.5238 13.46 39.1618 13.46 35.8573C13.46 35.5752 13.4821 35.0329 13.5302 34.2305C13.5783 33.428 13.6024 32.1773 13.6024 30.4784C13.6946 28.5907 13.7414 26.2782 13.7427 23.5407C13.7427 16.653 13.2702 12.2646 12.3251 10.3756C11.7584 10.3756 10.5286 10.517 8.63581 10.7998L4.66576 11.084C3.495 11.0985 2.35253 10.7248 1.41754 10.0214C0.972409 9.71294 0.610232 9.29983 0.362998 8.81856C0.115763 8.3373 -0.00892181 7.80267 -4.54397e-05 7.26191C-4.54397e-05 6.1293 1.13616 5.1381 3.40858 4.28831C6.71695 3.15569 12.3439 2.35526 20.2893 1.88701C23.4974 1.69891 25.4357 1.60486 26.104 1.60486C27.2452 1.60731 28.3496 2.00797 29.2259 2.73747C30.1683 3.49388 30.6435 4.43639 30.6435 5.569C30.6604 6.08919 30.5612 6.60662 30.3531 7.08386C30.1451 7.56111 29.8333 7.98623 29.4405 8.32849C28.6384 9.03687 27.6218 9.39106 26.3907 9.39106L23.8363 9.24898C22.9891 9.15047 22.1367 9.10302 21.2838 9.1069H19.8502C20.4796 14.8893 20.8142 20.7 20.8527 26.5163L20.7104 35.5772C20.6141 38.3147 20.5667 41.383 20.568 44.7821C20.568 49.3179 20.7571 54.7449 21.1354 61.0629C21.6153 68.8938 21.8553 74.3188 21.8553 77.3377C21.8553 80.925 22.0444 85.1719 22.4227 90.0786C22.7996 95.0813 22.9888 99.3282 22.9901 102.819C22.9901 107.443 21.6187 109.755 18.8757 109.755C17.4508 109.755 16.3366 109.071 15.5333 107.704Z" fill="#FF6E86"/>
<path d="M65.8186 109.059C64.7786 108.392 64.2586 107.164 64.2586 105.377C64.2586 102.546 63.7861 97.7327 62.841 90.9371L62.2736 87.9655L48.2381 85.8403C47.6713 88.0135 46.8693 92.4025 45.832 99.0074C45.2652 103.631 44.3669 106.7 43.1372 108.212C42.4688 109.064 41.5231 109.488 40.3 109.487C39.1705 109.489 38.0727 109.115 37.1801 108.425C36.2337 107.719 35.7605 106.846 35.7605 105.807L36.0452 105.099L36.1856 104.532C42.4187 80.2687 47.1426 56.3391 50.3574 32.7437C50.3574 32.3675 50.4036 31.7291 50.4998 30.8326C50.596 29.9361 50.6883 28.6314 50.7825 26.9385C51.0672 23.4486 51.3747 20.6645 51.7048 18.586C52.035 16.5076 52.5784 14.9507 53.335 13.9155H58.1572C59.3591 13.8809 60.5446 14.2004 61.5658 14.834C62.0135 15.1061 62.3806 15.492 62.6297 15.9523C62.8788 16.4125 63.0009 16.9306 62.9834 17.4534C62.9834 24.628 63.9766 35.293 65.9629 49.4487C67.853 63.9832 68.7988 74.176 68.8001 80.0272C68.8001 80.5928 69.0367 82.0556 69.5099 84.4156C69.9804 86.5861 70.2164 88.0015 70.2177 88.6618C70.219 89.3222 70.6922 92.1537 71.6373 97.1564C72.4874 101.692 72.9125 104.618 72.9125 105.933V106.075C72.9125 108.152 72.1566 109.474 70.6448 110.039C68.4619 110.039 66.8532 109.713 65.8186 109.059ZM60.854 77.6199C60.854 69.126 60.0974 58.2728 58.5843 45.0603L57.1667 30.3364C53.0977 52.5163 50.308 69.2687 48.7975 80.5935C50.2144 81.538 54.3749 82.2931 61.2791 82.8587C60.9693 81.1301 60.8269 79.3757 60.854 77.6199Z" fill="#FF6E86"/>
<path d="M83.3369 108.907C82.7644 108.462 82.2874 107.907 81.934 107.275C81.5806 106.643 81.3581 105.946 81.2797 105.227L82.8416 102.825C83.407 102.825 84.3053 103.014 85.5364 103.392C86.6087 103.632 87.7006 103.774 88.7987 103.816C90.5017 103.816 92.0389 103.061 93.4104 101.551C94.7818 100.041 95.7984 98.0589 96.4601 95.6056C97.6872 91.0698 98.3021 87.0116 98.3047 83.431C98.3047 77.2023 96.3184 70.6428 92.3457 63.7524L90.7857 61.0629C88.9892 57.9493 87.476 55.1651 86.2462 52.7104C84.9795 50.1622 83.9356 47.5096 83.1263 44.7822C82.0077 41.2074 81.4339 37.4852 81.424 33.7402C81.424 29.5886 82.3698 25.247 84.2612 20.7152C85.1389 18.635 86.5286 16.8097 88.3014 15.4083C89.9691 14.0694 92.0481 13.3451 94.1883 13.3572C95.9083 13.3644 97.5781 13.9361 98.9403 14.9841C100.411 16.07 101.146 17.368 101.146 18.8782C101.16 19.2661 101.076 19.6512 100.901 19.9977C100.725 20.3441 100.465 20.6406 100.143 20.8593C99.4375 21.3453 98.5945 21.5935 97.7373 21.5676C96.6845 21.5644 95.6531 21.27 94.7578 20.7172C92.6765 20.8132 91.0216 22.6536 89.7932 26.2382C88.7506 29.5439 88.2306 32.2787 88.2333 34.4426C88.2437 37.2508 88.6742 40.0417 89.5105 42.723C90.2989 45.3658 91.3937 47.9077 92.7727 50.2971L95.8926 55.9602L100.855 65.3032C102.179 67.9473 103.243 71.0156 104.047 74.5082C104.848 77.9908 105.252 81.5527 105.25 85.1259C105.261 90.8377 103.899 96.4688 101.278 101.547C100.009 104.128 98.0755 106.327 95.6761 107.918C93.3065 109.508 90.5107 110.345 87.6558 110.319V110.746C86.0813 110.515 84.5934 109.881 83.3369 108.907Z" fill="#FF6E86"/>
<path d="M128.09 106.5L127.948 100.979C127.853 99.3777 127.805 97.5847 127.805 95.5997L127.948 90.7871C127.666 89.7478 126.957 79.4129 125.82 59.7823C124.684 40.1517 124.023 27.5523 123.835 21.9839C118.355 21.7958 114.855 21.2295 113.337 20.285C112.296 19.5299 111.776 18.6808 111.777 17.7376C111.777 16.9839 112.273 16.2995 113.267 15.6845C114.176 15.0965 115.233 14.7773 116.316 14.764C118.963 14.764 122.179 14.9528 125.963 15.3303C129.159 15.7752 132.38 16.0119 135.607 16.0387H137.877C140.808 16.0387 142.274 17.1727 142.274 19.4406C142.283 19.9813 142.158 20.5159 141.911 20.9971C141.664 21.4783 141.301 21.8915 140.856 22.2001C139.917 22.9058 138.77 23.2796 137.594 23.2626C136.355 23.2203 135.121 23.0784 133.905 22.8384L131.07 22.2721L130.927 22.9785L130.785 23.6869C130.785 32.0914 131.587 45.4933 133.191 63.8926C134.703 81.1646 135.459 94.5665 135.461 104.098C135.461 105.231 134.964 106.221 133.971 107.07C133.055 107.891 131.868 108.345 130.637 108.345L128.09 106.5Z" fill="#FF6E86"/>
<path d="M164.119 107.632C165.161 105.648 165.681 97.6259 165.679 83.565C165.66 79.9682 165.424 76.3757 164.971 72.8072L164.544 68.701C164.304 66.7751 164.162 64.8382 164.119 62.8979V59.2159C163.173 56.8586 161.447 52.4702 158.942 46.0508C156.437 39.6313 154.427 34.2517 152.913 29.9121C151.116 24.912 150.218 21.5142 150.218 19.7186V19.0102L153.48 16.6089C155.084 16.7983 156.787 18.8748 158.587 22.8382C160.099 26.3295 161.777 31.3322 163.622 37.8463C165.467 44.3605 166.389 47.8051 166.389 48.1799C166.766 47.1434 167.523 43.6041 168.659 37.5622C169.795 31.5203 171.072 26.1881 172.489 21.5656C174.093 16.9431 175.747 14.6305 177.453 14.6278C178.355 14.6134 179.233 14.9143 179.935 15.4783C180.268 15.7233 180.538 16.0433 180.723 16.4123C180.908 16.7813 181.003 17.1888 181 17.6014C181 22.4134 179.676 29.2084 177.028 37.9864C174.19 47.5209 172.772 54.4106 172.773 58.6556V101.255C172.773 107.578 171.213 110.74 168.091 110.74C166.481 110.745 165.157 109.709 164.119 107.632Z" fill="#FF6E86"/>
</g>
<defs>
<clipPath id="clip0">
<rect width="181" height="125.178" fill="white"/>
</clipPath>
</defs>
</svg>
